# xmcd CD database file generated by Grip 3.1.8
# 
# Track frame offsets:
#       150
#       6208
#       36535
#       56620
#       112001
#       136517
#       152540
#       177308
#       202610
#       222941
# 
# Disc length: 3202 seconds
# 
# Revision: 1
# Processed by: cddbd v1.5PL3 Copyright (c) Steve Scherf et al.
# Submitted via: Grip 3.1.8
# 
DISCID=800c800a
DTITLE=Frigg - Brech
DYEAR=1999
DGENRE=Jazz
TTITLE0=Introductio
TTITLE1=Sailors son
TTITLE2=Liebeslie
TTITLE3=Anne Smith relates the conquest of Americ
TTITLE4=Tahit
TTITLE5=Interlud
TTITLE6=Die Welt gefällt mir nicht mehr #
TTITLE7=The Shipwrecked man's repor
TTITLE8=Matrosenson
TTITLE9=Die Welt gefällt mir nicht mehr #
EXTD=
EXTT0=
EXTT1=
EXTT2=
EXTT3=
EXTT4=
EXTT5=
EXTT6=
EXTT7=
EXTT8=
EXTT9=
PLAYORDER=
